<svg width="53" height="53" viewBox="0 0 53 53" fill="none" xmlns="http://www.w3.org/2000/svg">
<g id="Icon">
<circle id="Background" cx="26.3944" cy="26.4476" r="26.1658" fill="#FFECBB"/>
<path id="Icon_2" d="M22.8409 25.4707C23.8787 27.6138 25.6116 29.3422 27.7573 30.3745C27.9156 30.4494 28.0907 30.4819 28.2653 30.4686C28.4399 30.4554 28.6081 30.3968 28.7532 30.2989L31.9048 28.1936C32.044 28.0992 32.2049 28.0416 32.3724 28.0261C32.54 28.0107 32.7087 28.038 32.8628 28.1054L38.7625 30.6392C38.9642 30.7231 39.1326 30.871 39.2419 31.0601C39.3513 31.2492 39.3954 31.4689 39.3676 31.6855C39.1806 33.145 38.4682 34.4863 37.3638 35.4585C36.2593 36.4307 34.8385 36.9672 33.3671 36.9675C28.8201 36.9675 24.4593 35.1612 21.2441 31.946C18.0289 28.7308 16.2227 24.3701 16.2227 19.8231C16.223 18.3517 16.7594 16.9309 17.7316 15.8264C18.7039 14.7219 20.0452 14.0096 21.5046 13.8226C21.7213 13.7947 21.941 13.8389 22.1301 13.9482C22.3192 14.0576 22.467 14.226 22.551 14.4277L25.0848 20.34C25.1507 20.4917 25.1783 20.6573 25.1651 20.8221C25.1519 20.987 25.0983 21.1461 25.0092 21.2854L22.9039 24.4874C22.8102 24.6322 22.7552 24.7987 22.7442 24.9708C22.7331 25.143 22.7664 25.3151 22.8409 25.4707V25.4707Z" stroke="#DEAA27" stroke-width="2" stroke-linecap="round" stroke-linejoin="round"/>
</g>
</svg>
