<svg width="53" height="54" viewBox="0 0 53 54" fill="none" xmlns="http://www.w3.org/2000/svg">
<g id="Icon">
<circle id="Ellipse 15" cx="26.3944" cy="26.9678" r="26.1658" fill="#EAEAEA"/>
<path id="Vector" d="M25.9789 27.9338C28.0178 27.9338 29.6706 26.2809 29.6706 24.242C29.6706 22.2031 28.0178 20.5503 25.9789 20.5503C23.94 20.5503 22.2871 22.2031 22.2871 24.242C22.2871 26.2809 23.94 27.9338 25.9789 27.9338Z" stroke="#181818" stroke-width="2" stroke-linecap="round" stroke-linejoin="round"/>
<path id="Vector_2" d="M35.2068 24.2421C35.2068 32.5485 25.9774 39.0091 25.9774 39.0091C25.9774 39.0091 16.748 32.5485 16.748 24.2421C16.748 21.7943 17.7204 19.4468 19.4513 17.7159C21.1821 15.9851 23.5296 15.0127 25.9774 15.0127C28.4252 15.0127 30.7727 15.9851 32.5036 17.7159C34.2344 19.4468 35.2068 21.7943 35.2068 24.2421V24.2421Z" stroke="#181818" stroke-width="2" stroke-linecap="round" stroke-linejoin="round"/>
</g>
</svg>
